<?xml version="1.0" encoding="utf-8"?>
<!-- Generator: Adobe Illustrator 19.2.0, SVG Export Plug-In . SVG Version: 6.00 Build 0)  -->
<svg version="1.1" id="Layer_1" xmlns="http://www.w3.org/2000/svg" xmlns:xlink="http://www.w3.org/1999/xlink" x="0px" y="0px"
	 viewBox="0 0 500 500" style="enable-background:new 0 0 500 500;" xml:space="preserve">
<style type="text/css">
	.st0{fill:none;stroke:#000000;stroke-width:15;stroke-linecap:round;stroke-linejoin:round;stroke-miterlimit:10;}
	.st1{fill:#FFFFFF;}
	.st2{fill:#FFFFFF;stroke:#000000;stroke-width:15;stroke-linecap:round;stroke-linejoin:round;stroke-miterlimit:10;}
	.st3{fill:none;}
	.st4{fill:none;stroke:#14130F;stroke-width:15;stroke-linecap:round;stroke-linejoin:round;stroke-miterlimit:10;}
</style>
<g>
	<g>
		<polyline class="st0" points="225.8,38.6 434.4,38.6 480.4,240.3 		"/>
		<path class="st0" d="M225.8,38.6"/>
		<path class="st0" d="M126,38.6"/>
		<polyline class="st0" points="20.4,240.3 66.4,38.6 126,38.6 		"/>
		<g>
			<path class="st1" d="M480.4,240.3v237.4c0,0.5-0.4,1-1,1h-458c-0.5,0-1-0.5-1-1V240.3"/>
			<path class="st0" d="M480.4,240.3v237.4c0,0.5-0.4,1-1,1h-458c-0.5,0-1-0.5-1-1V240.3"/>
		</g>
		<path class="st2" d="M20.4,239.5h150.7c0,52.8,36.9,95.7,79.3,95.7c42.4,0,79.3-42.8,79.3-95.7h150.7"/>
	</g>
	<g>
		<g>
			<g>
				<path class="st3" d="M249.4,159.2h165.9c0.8,0,1.5,0.6,1.5,1.3V369c0,0.7-0.7,1.3-1.5,1.3H83.5c-0.8,0-1.5-0.6-1.5-1.3V128.8
					c0-0.7,0.7-1.3,1.5-1.3h121.3"/>
				<path class="st4" d="M82,230.5V128.8c0-0.7,0.7-1.3,1.5-1.3h121.3"/>
				<path class="st4" d="M249.4,159.2h165.9c0.8,0,1.5,0.6,1.5,1.3v70"/>
			</g>
			<g>
				<line class="st3" x1="204.8" y1="127.5" x2="249.4" y2="159.2"/>
				<line class="st4" x1="204.8" y1="127.5" x2="249.4" y2="159.2"/>
			</g>
		</g>
	</g>
	<g>
		<g>
			<g>
				<path class="st3" d="M244.7,105.4h140c0.7,0,1.2,0.5,1.2,1.1v176c0,0.6-0.6,1.1-1.2,1.1h-280c-0.7,0-1.2-0.5-1.2-1.1V79.7
					c0-0.6,0.6-1.1,1.2-1.1H207"/>
				<path class="st4" d="M103.4,127.5V79.7c0-0.6,0.6-1.1,1.2-1.1H207"/>
				<path class="st4" d="M244.7,105.4h140c0.7,0,1.2,0.5,1.2,1.1v52.7"/>
			</g>
			<g>
				<line class="st3" x1="207" y1="78.6" x2="244.7" y2="105.4"/>
				<line class="st4" x1="207" y1="78.6" x2="244.7" y2="105.4"/>
			</g>
		</g>
	</g>
	<g>
		<g>
			<g>
				<path class="st3" d="M248.4,55.9h121.3c0.6,0,1.1,0.4,1.1,1v152.4c0,0.5-0.5,1-1.1,1H127.1c-0.6,0-1.1-0.4-1.1-1V33.7
					c0-0.5,0.5-1,1.1-1h88.7"/>
				<path class="st4" d="M126,75V33.7c0-0.5,0.5-1,1.1-1h88.7"/>
				<path class="st4" d="M248.4,55.9h121.3c0.6,0,1.1,0.4,1.1,1v45.6"/>
			</g>
			<g>
				<line class="st3" x1="215.8" y1="32.7" x2="248.4" y2="55.9"/>
				<line class="st4" x1="215.8" y1="32.7" x2="248.4" y2="55.9"/>
			</g>
		</g>
	</g>
</g>
</svg>
