<?xml version="1.0" encoding="utf-8"?>
<!-- Generator: Adobe Illustrator 19.2.0, SVG Export Plug-In . SVG Version: 6.00 Build 0)  -->
<svg version="1.1" id="Layer_1" xmlns="http://www.w3.org/2000/svg" xmlns:xlink="http://www.w3.org/1999/xlink" x="0px" y="0px"
	 viewBox="0 0 500 500" style="enable-background:new 0 0 500 500;" xml:space="preserve">
<style type="text/css">
	.st0{fill:#FFFFFF;stroke:#12100B;stroke-width:25;stroke-linecap:round;stroke-linejoin:round;stroke-miterlimit:10;}
	.st1{fill:none;stroke:#12100B;stroke-width:25;stroke-linecap:round;stroke-linejoin:round;stroke-miterlimit:10;}
</style>
<path class="st0" d="M303.5,20h-107c-3.1,0-5.7,2.5-5.7,5.7v58.7c0,3.1,2.5,5.7,5.7,5.7h107c3.1,0,5.7-2.5,5.7-5.7V25.7
	C309.2,22.5,306.6,20,303.5,20z"/>
<g>
	<path class="st0" d="M386,452.3c0,15.2-12.2,27.7-27.2,27.7H141.2c-15,0-27.2-12.5-27.2-27.7V92.4c0-15.2,12.2-27.7,27.2-27.7
		h217.6c15,0,27.2,12.5,27.2,27.7V452.3z"/>
</g>
<g>
	<path class="st1" d="M223.5,411.1l108.9-155.2c3-4.4,1-6.2-4.5-6.2h-52.7c-5.5,0-9.3-4.9-8.4-10.2l20.4-106.5"/>
	<path class="st1" d="M287.3,132.5L167.7,286.2c-3.4,4.2-1.6,7.8,3.9,7.8h56.5c5.5,0,9.7,3,9.3,8.3l-14,109.2"/>
</g>
</svg>
