<?xml version="1.0" encoding="utf-8"?>
<!-- Generator: Adobe Illustrator 19.2.0, SVG Export Plug-In . SVG Version: 6.00 Build 0)  -->
<svg version="1.1" id="Layer_1" xmlns="http://www.w3.org/2000/svg" xmlns:xlink="http://www.w3.org/1999/xlink" x="0px" y="0px"
	 viewBox="0 0 500 500" style="enable-background:new 0 0 500 500;" xml:space="preserve">
<style type="text/css">
	.st0{fill:#FFFFFF;}
	.st1{fill:none;stroke:#12100B;stroke-width:25;stroke-linecap:round;stroke-linejoin:round;stroke-miterlimit:10;}
	.st2{fill:#FFFFFF;stroke:#12100B;stroke-width:25;stroke-linecap:round;stroke-linejoin:round;stroke-miterlimit:10;}
</style>
<g>
	<g>
		<g>
			<line class="st0" x1="250" y1="63.9" x2="250" y2="473.9"/>
			<line class="st1" x1="250" y1="63.9" x2="250" y2="473.9"/>
		</g>
		<path class="st2" d="M250,473.9l215-33.5c8.3-1.7,15-9.9,15-18.3V38.7c0-8.4-6.8-14-15-12.3L250,63.9"/>
	</g>
	<g>
		<line class="st2" x1="408.6" y1="345.2" x2="313.4" y2="361"/>
		<line class="st2" x1="408.6" y1="131" x2="313.4" y2="146.9"/>
		<line class="st2" x1="408.6" y1="242.1" x2="313.4" y2="257.9"/>
	</g>
	<path class="st2" d="M250,473.9L35,440.4c-8.3-1.7-15-9.9-15-18.3V38.7c0-8.4,6.8-14,15-12.3l215,37.5V473.9z"/>
	<g>
		<line class="st2" x1="91.4" y1="345.2" x2="186.6" y2="361"/>
		<line class="st2" x1="91.4" y1="131" x2="186.6" y2="146.9"/>
		<line class="st2" x1="91.4" y1="242.1" x2="186.6" y2="257.9"/>
	</g>
</g>
</svg>
