<?xml version="1.0" encoding="utf-8"?>
<!-- Generator: Adobe Illustrator 19.2.0, SVG Export Plug-In . SVG Version: 6.00 Build 0)  -->
<svg version="1.1" id="Layer_1" xmlns="http://www.w3.org/2000/svg" xmlns:xlink="http://www.w3.org/1999/xlink" x="0px" y="0px"
	 viewBox="0 0 500 500" style="enable-background:new 0 0 500 500;" xml:space="preserve">
<style type="text/css">
	.st0{fill:#FFFFFF;stroke:#231F20;stroke-width:25;stroke-linecap:round;stroke-linejoin:round;stroke-miterlimit:10;}
	.st1{fill:#231F20;stroke:#231F20;stroke-width:15;stroke-miterlimit:10;}
</style>
<g>
	<g>
		<polyline class="st0" points="468,112.6 206.9,373.6 156,322.7 417.1,61.7 		"/>
	</g>
	<path class="st0" d="M418.5,60.2c14.1-14.1,36.9-14.1,50.9,0c14.1,14.1,14.1,36.9,0,50.9"/>
	<line class="st0" x1="393.1" y1="85.7" x2="444" y2="136.6"/>
</g>
<path class="st0" d="M206.9,373.6c0,0-78.1,106.3-186.9,67.1c0,0,62.2-15.6,64.1-34.8c1.9-19.3,6.4-73.1,71.9-83.2L206.9,373.6z"/>
<g>
	<path class="st1" d="M49.9,453.8c0,0,5.5-0.1,15-0.1c4.7,0,10.5-0.1,17.1-0.1c1.6,0,3.3,0,5.1,0c1.7,0,3.5,0,5.4-0.1
		c1.8,0,3.7,0,5.6,0s3.9,0,5.9-0.1c4,0,8.2-0.1,12.5-0.1s8.8-0.1,13.4-0.2c4.6-0.1,9.3-0.2,14.1-0.3c4.8-0.2,9.7-0.3,14.7-0.5
		c5-0.2,10-0.4,15.1-0.7c5.1-0.3,10.2-0.6,15.4-0.9c5.2-0.4,10.5-0.8,15.7-1.1c5.4-0.4,10.7-0.8,16.1-1.1
		c10.9-0.6,21.7-1.1,32.3-1.3c10.6-0.3,21.1-0.3,31.3-0.3c10.1,0.1,19.9,0.3,29.2,0.6c4.6,0.2,9.2,0.4,13.5,0.6
		c4.4,0.3,8.6,0.5,12.7,0.8c8.1,0.6,15.5,1.2,22.1,1.8c6.6,0.7,12.3,1.3,17.1,1.9c9.5,1.2,14.9,2.2,14.9,2.2s-5.4,1.2-14.8,2.8
		c-4.7,0.8-10.4,1.7-16.9,2.7s-13.9,2-22,3c-8,1-16.8,2-26,3s-18.9,1.9-29,2.7c-10.1,0.9-20.4,1.7-31,2.4c-10.5,0.7-21.3,1.4-31.9,2
		c-5.4,0.3-10.7,0.6-16.1,0.9l-4,0.2c-1.4,0.1-2.7,0.1-4.1,0.2c-2.7,0.1-5.5,0.2-8.2,0.3c-5.4,0.1-10.8,0-16.1,0
		c-5.3-0.2-10.5-0.3-15.7-0.6c-2.6-0.2-5.1-0.3-7.6-0.5s-5-0.3-7.5-0.6c-2.5-0.2-4.9-0.5-7.3-0.7c-2.4-0.2-4.8-0.5-7.1-0.8
		c-9.3-1.2-18.1-2.5-26.2-4c-4-0.8-7.9-1.5-11.5-2.3c-3.7-0.8-7.1-1.5-10.3-2.4c-3.2-0.8-6.3-1.5-9-2.3c-2.8-0.7-5.3-1.5-7.6-2.2
		c-4.6-1.4-8.2-2.6-10.6-3.4C51.2,454.3,49.9,453.8,49.9,453.8z"/>
</g>
</svg>
