<?xml version="1.0" encoding="utf-8"?>
<!-- Generator: Adobe Illustrator 19.2.0, SVG Export Plug-In . SVG Version: 6.00 Build 0)  -->
<svg version="1.1" id="Layer_1" xmlns="http://www.w3.org/2000/svg" xmlns:xlink="http://www.w3.org/1999/xlink" x="0px" y="0px"
	 viewBox="0 0 500 500" style="enable-background:new 0 0 500 500;" xml:space="preserve">
<style type="text/css">
	.st0{fill:#FFFFFF;}
	.st1{fill:none;stroke:#12100B;stroke-width:25;stroke-linecap:round;stroke-linejoin:round;stroke-miterlimit:10;}
	.st2{fill:#FFFFFF;stroke:#12100B;stroke-width:25;stroke-linecap:round;stroke-linejoin:round;stroke-miterlimit:10;}
</style>
<g>
	<g>
		<path class="st0" d="M480,479c0,0.5-0.5,1-1,1H21c-0.5,0-1-0.5-1-1V21c0-0.5,0.5-1,1-1h458c0.5,0,1,0.5,1,1V479z"/>
		<path class="st1" d="M480,479c0,0.5-0.5,1-1,1H21c-0.5,0-1-0.5-1-1V21c0-0.5,0.5-1,1-1h458c0.5,0,1,0.5,1,1V479z"/>
	</g>
	<line class="st2" x1="289.7" y1="154.8" x2="384.8" y2="154.8"/>
	<g>
		<line class="st2" x1="289.7" y1="313.4" x2="384.8" y2="313.4"/>
		<line class="st2" x1="289.7" y1="376.9" x2="384.8" y2="376.9"/>
	</g>
	<g>
		<line class="st2" x1="107.2" y1="154.8" x2="202.4" y2="154.8"/>
		<line class="st2" x1="154.8" y1="107.2" x2="154.8" y2="202.4"/>
	</g>
	<g>
		<line class="st2" x1="107.2" y1="297.6" x2="202.4" y2="392.8"/>
		<line class="st2" x1="202.4" y1="297.6" x2="107.2" y2="392.8"/>
	</g>
</g>
</svg>
