<?xml version="1.0" encoding="utf-8"?>
<!-- Generator: Adobe Illustrator 19.2.0, SVG Export Plug-In . SVG Version: 6.00 Build 0)  -->
<svg version="1.1" id="Layer_1" xmlns="http://www.w3.org/2000/svg" xmlns:xlink="http://www.w3.org/1999/xlink" x="0px" y="0px"
	 viewBox="0 0 500 500" style="enable-background:new 0 0 500 500;" xml:space="preserve">
<style type="text/css">
	.st0{fill:#FFFFFF;}
	.st1{fill:none;stroke:#12100B;stroke-width:15;stroke-linecap:round;stroke-linejoin:round;stroke-miterlimit:10;}
	.st2{fill:#FFFFFF;stroke:#12100B;stroke-width:15;stroke-linecap:round;stroke-linejoin:round;stroke-miterlimit:10;}
</style>
<g>
	<polygon class="st0" points="83.4,471.9 83.4,20 289.6,20 416.5,146.9 416.6,472.1 505,472.1 505,-8 0,-8 0,500 83.4,500 	"/>
	<polygon class="st0" points="83.4,500 83.4,480 416.6,472.1 505,472.1 505,500 	"/>
</g>
<g>
	<path class="st1" d="M416.6,146.9v325.2c0,4.4-3.6,7.9-7.9,7.9H91.5c-4.4,0-8.1-3.6-8.1-8.1V28.1c0-4.4,3.6-8.1,8.1-8.1h198.1"/>
	<g>
		<g>
			<polygon class="st2" points="416.5,146.9 289.6,146.9 289.6,20 			"/>
		</g>
	</g>
</g>
</svg>
