<?xml version="1.0" encoding="utf-8"?>
<!-- Generator: Adobe Illustrator 19.2.0, SVG Export Plug-In . SVG Version: 6.00 Build 0)  -->
<svg version="1.1" id="Layer_1" xmlns="http://www.w3.org/2000/svg" xmlns:xlink="http://www.w3.org/1999/xlink" x="0px" y="0px"
	 viewBox="0 0 500 500" style="enable-background:new 0 0 500 500;" xml:space="preserve">
<style type="text/css">
	.st0{fill:#FFFFFF;stroke:#12100B;stroke-width:25;stroke-linecap:round;stroke-linejoin:round;stroke-miterlimit:10;}
</style>
<g>
	<path class="st0" d="M395,139.7v312.4c0,4.2-3.4,7.6-7.6,7.6H82.7c-4.2,0-7.7-3.5-7.7-7.7V25.5c0-4.3,3.5-7.7,7.7-7.7h190.4"/>
	<g>
		<g>
			<polygon class="st0" points="395,139.7 273.1,139.7 273.1,17.8 			"/>
		</g>
	</g>
</g>
<g>
	<path class="st0" d="M399.5,354.6c28.2,28.2,28.2,73.8,0,102c-28.2,28.2-73.8,28.2-102,0c-28.2-28.2-28.2-73.8,0-102
		C325.7,326.5,371.3,326.5,399.5,354.6z"/>
	<line class="st0" x1="323.9" y1="381" x2="373.1" y2="430.3"/>
	<line class="st0" x1="373.1" y1="381" x2="323.9" y2="430.3"/>
</g>
</svg>
