<?xml version="1.0" encoding="utf-8"?>
<!-- Generator: Adobe Illustrator 19.2.0, SVG Export Plug-In . SVG Version: 6.00 Build 0)  -->
<svg version="1.1" id="Layer_1" xmlns="http://www.w3.org/2000/svg" xmlns:xlink="http://www.w3.org/1999/xlink" x="0px" y="0px"
	 viewBox="0 0 500 500" style="enable-background:new 0 0 500 500;" xml:space="preserve">
<style type="text/css">
	.st0{fill:#FFFFFF;stroke:#231F20;stroke-width:25;stroke-linecap:round;stroke-linejoin:round;stroke-miterlimit:10;}
</style>
<g>
	<g>
		<path class="st0" d="M258.5,172.2c5.2-5.2,15-3.7,22,3.2l100.8,100.8c6.9,6.9,8.4,16.8,3.2,22L262.6,420.1c-5.2,5.2-15,3.7-22-3.2
			L139.8,316.1c-6.9-6.9-8.4-16.8-3.2-22L258.5,172.2z"/>
	</g>
	<g>
		<path class="st0" d="M331.2,80.6c6.2-6.2,17.8-4.7,25.7,3.3l116,116c8,8,9.4,19.6,3.3,25.7l-146,146c-6.2,6.2-17.8,4.7-25.7-3.3
			l-116-116c-8-8-9.4-19.6-3.3-25.7L331.2,80.6z"/>
	</g>
	<line class="st0" x1="20" y1="422.9" x2="254.2" y2="422.9"/>
</g>
</svg>
