<?xml version="1.0" encoding="utf-8"?>
<!-- Generator: Adobe Illustrator 19.2.0, SVG Export Plug-In . SVG Version: 6.00 Build 0)  -->
<svg version="1.1" id="Layer_1" xmlns="http://www.w3.org/2000/svg" xmlns:xlink="http://www.w3.org/1999/xlink" x="0px" y="0px"
	 viewBox="0 0 500 500" style="enable-background:new 0 0 500 500;" xml:space="preserve">
<style type="text/css">
	.st0{fill:#FFFFFF;}
	.st1{fill:none;stroke:#12100B;stroke-width:25;stroke-linecap:round;stroke-linejoin:round;stroke-miterlimit:10;}
	.st2{fill:#FFFFFF;stroke:#12100B;stroke-width:25;stroke-linecap:round;stroke-linejoin:round;stroke-miterlimit:10;}
</style>
<g>
	<g>
		<g>
			<path class="st0" d="M250,115.2h228c1.1,0,2,0.9,2,2v313.2c0,1.1-0.9,2-2,2H22c-1.1,0-2-0.9-2-2V69.6c0-1.1,0.9-2,2-2h166.7"/>
			<path class="st1" d="M250,115.2h228c1.1,0,2,0.9,2,2v313.2c0,1.1-0.9,2-2,2H22c-1.1,0-2-0.9-2-2V69.6c0-1.1,0.9-2,2-2h166.7"/>
		</g>
		<g>
			<line class="st0" x1="188.7" y1="67.6" x2="250" y2="115.2"/>
			<line class="st1" x1="188.7" y1="67.6" x2="250" y2="115.2"/>
		</g>
	</g>
	<g>
		<g>
			<line class="st2" x1="480" y1="178.6" x2="20" y2="178.6"/>
		</g>
	</g>
</g>
</svg>
