<?xml version="1.0" encoding="utf-8"?>
<!-- Generator: Adobe Illustrator 19.2.0, SVG Export Plug-In . SVG Version: 6.00 Build 0)  -->
<svg version="1.1" id="Layer_1" xmlns="http://www.w3.org/2000/svg" xmlns:xlink="http://www.w3.org/1999/xlink" x="0px" y="0px"
	 viewBox="0 0 500 500" style="enable-background:new 0 0 500 500;" xml:space="preserve">
<style type="text/css">
	.st0{fill:#231F20;}
</style>
<path class="st0" d="M86.8,95.3H35.5c-3.9,0-7-3.1-7-7V37c0-3.9,3.1-7,7-7h51.3c3.9,0,7,3.1,7,7v51.3C93.8,92.2,90.7,95.3,86.8,95.3
	z"/>
<path class="st0" d="M162.2,95.3h-51.3c-3.9,0-7-3.1-7-7V37c0-3.9,3.1-7,7-7h51.3c3.9,0,7,3.1,7,7v51.3
	C169.2,92.2,166,95.3,162.2,95.3z"/>
<path class="st0" d="M237.5,95.3h-51.3c-3.9,0-7-3.1-7-7V37c0-3.9,3.1-7,7-7h51.3c3.9,0,7,3.1,7,7v51.3
	C244.5,92.2,241.4,95.3,237.5,95.3z"/>
<path class="st0" d="M87.3,170.2H36c-3.9,0-7-3.1-7-7v-51.3c0-3.9,3.1-7,7-7h51.3c3.9,0,7,3.1,7,7v51.3
	C94.3,167,91.2,170.2,87.3,170.2z"/>
<path class="st0" d="M162.6,170.2h-51.3c-3.9,0-7-3.1-7-7v-51.3c0-3.9,3.1-7,7-7h51.3c3.9,0,7,3.1,7,7v51.3
	C169.6,167,166.5,170.2,162.6,170.2z"/>
<path class="st0" d="M238,170.2h-51.3c-3.9,0-7-3.1-7-7v-51.3c0-3.9,3.1-7,7-7H238c3.9,0,7,3.1,7,7v51.3
	C245,167,241.9,170.2,238,170.2z"/>
<path class="st0" d="M87.3,245H36c-3.9,0-7-3.1-7-7v-51.3c0-3.9,3.1-7,7-7h51.3c3.9,0,7,3.1,7,7V238C94.3,241.9,91.2,245,87.3,245z"
	/>
<path class="st0" d="M162.6,245h-51.3c-3.9,0-7-3.1-7-7v-51.3c0-3.9,3.1-7,7-7h51.3c3.9,0,7,3.1,7,7V238
	C169.6,241.9,166.5,245,162.6,245z"/>
<path class="st0" d="M238,245h-51.3c-3.9,0-7-3.1-7-7v-51.3c0-3.9,3.1-7,7-7H238c3.9,0,7,3.1,7,7V238C245,241.9,241.9,245,238,245z"
	/>
<path class="st0" d="M313.3,95.3H262c-3.9,0-7-3.1-7-7V37c0-3.9,3.1-7,7-7h51.3c3.9,0,7,3.1,7,7v51.3
	C320.3,92.2,317.2,95.3,313.3,95.3z"/>
<path class="st0" d="M388.7,95.3h-51.3c-3.9,0-7-3.1-7-7V37c0-3.9,3.1-7,7-7h51.3c3.9,0,7,3.1,7,7v51.3
	C395.7,92.2,392.6,95.3,388.7,95.3z"/>
<path class="st0" d="M464,95.3h-51.3c-3.9,0-7-3.1-7-7V37c0-3.9,3.1-7,7-7H464c3.9,0,7,3.1,7,7v51.3C471,92.2,467.9,95.3,464,95.3z"
	/>
<path class="st0" d="M313.8,170.2h-51.3c-3.9,0-7-3.1-7-7v-51.3c0-3.9,3.1-7,7-7h51.3c3.9,0,7,3.1,7,7v51.3
	C320.8,167,317.7,170.2,313.8,170.2z"/>
<path class="st0" d="M389.2,170.2h-51.3c-3.9,0-7-3.1-7-7v-51.3c0-3.9,3.1-7,7-7h51.3c3.9,0,7,3.1,7,7v51.3
	C396.2,167,393,170.2,389.2,170.2z"/>
<path class="st0" d="M464.5,170.2h-51.3c-3.9,0-7-3.1-7-7v-51.3c0-3.9,3.1-7,7-7h51.3c3.9,0,7,3.1,7,7v51.3
	C471.5,167,468.4,170.2,464.5,170.2z"/>
<path class="st0" d="M313.8,245h-51.3c-3.9,0-7-3.1-7-7v-51.3c0-3.9,3.1-7,7-7h51.3c3.9,0,7,3.1,7,7V238
	C320.8,241.9,317.7,245,313.8,245z"/>
<path class="st0" d="M389.2,245h-51.3c-3.9,0-7-3.1-7-7v-51.3c0-3.9,3.1-7,7-7h51.3c3.9,0,7,3.1,7,7V238
	C396.2,241.9,393,245,389.2,245z"/>
<path class="st0" d="M464.5,245h-51.3c-3.9,0-7-3.1-7-7v-51.3c0-3.9,3.1-7,7-7h51.3c3.9,0,7,3.1,7,7V238
	C471.5,241.9,468.4,245,464.5,245z"/>
<path class="st0" d="M86.8,320.3H35.5c-3.9,0-7-3.1-7-7V262c0-3.9,3.1-7,7-7h51.3c3.9,0,7,3.1,7,7v51.3
	C93.8,317.2,90.7,320.3,86.8,320.3z"/>
<path class="st0" d="M162.2,320.3h-51.3c-3.9,0-7-3.1-7-7V262c0-3.9,3.1-7,7-7h51.3c3.9,0,7,3.1,7,7v51.3
	C169.2,317.2,166,320.3,162.2,320.3z"/>
<path class="st0" d="M237.5,320.3h-51.3c-3.9,0-7-3.1-7-7V262c0-3.9,3.1-7,7-7h51.3c3.9,0,7,3.1,7,7v51.3
	C244.5,317.2,241.4,320.3,237.5,320.3z"/>
<path class="st0" d="M87.3,395.2H36c-3.9,0-7-3.1-7-7v-51.3c0-3.9,3.1-7,7-7h51.3c3.9,0,7,3.1,7,7v51.3
	C94.3,392,91.2,395.2,87.3,395.2z"/>
<path class="st0" d="M162.6,395.2h-51.3c-3.9,0-7-3.1-7-7v-51.3c0-3.9,3.1-7,7-7h51.3c3.9,0,7,3.1,7,7v51.3
	C169.6,392,166.5,395.2,162.6,395.2z"/>
<path class="st0" d="M238,395.2h-51.3c-3.9,0-7-3.1-7-7v-51.3c0-3.9,3.1-7,7-7H238c3.9,0,7,3.1,7,7v51.3
	C245,392,241.9,395.2,238,395.2z"/>
<path class="st0" d="M87.3,470H36c-3.9,0-7-3.1-7-7v-51.3c0-3.9,3.1-7,7-7h51.3c3.9,0,7,3.1,7,7V463C94.3,466.9,91.2,470,87.3,470z"
	/>
<path class="st0" d="M162.6,470h-51.3c-3.9,0-7-3.1-7-7v-51.3c0-3.9,3.1-7,7-7h51.3c3.9,0,7,3.1,7,7V463
	C169.6,466.9,166.5,470,162.6,470z"/>
<path class="st0" d="M238,470h-51.3c-3.9,0-7-3.1-7-7v-51.3c0-3.9,3.1-7,7-7H238c3.9,0,7,3.1,7,7V463C245,466.9,241.9,470,238,470z"
	/>
<path class="st0" d="M313.3,320.3H262c-3.9,0-7-3.1-7-7V262c0-3.9,3.1-7,7-7h51.3c3.9,0,7,3.1,7,7v51.3
	C320.3,317.2,317.2,320.3,313.3,320.3z"/>
<path class="st0" d="M388.7,320.3h-51.3c-3.9,0-7-3.1-7-7V262c0-3.9,3.1-7,7-7h51.3c3.9,0,7,3.1,7,7v51.3
	C395.7,317.2,392.6,320.3,388.7,320.3z"/>
<path class="st0" d="M464,320.3h-51.3c-3.9,0-7-3.1-7-7V262c0-3.9,3.1-7,7-7H464c3.9,0,7,3.1,7,7v51.3
	C471,317.2,467.9,320.3,464,320.3z"/>
<path class="st0" d="M313.8,395.2h-51.3c-3.9,0-7-3.1-7-7v-51.3c0-3.9,3.1-7,7-7h51.3c3.9,0,7,3.1,7,7v51.3
	C320.8,392,317.7,395.2,313.8,395.2z"/>
<path class="st0" d="M389.2,395.2h-51.3c-3.9,0-7-3.1-7-7v-51.3c0-3.9,3.1-7,7-7h51.3c3.9,0,7,3.1,7,7v51.3
	C396.2,392,393,395.2,389.2,395.2z"/>
<path class="st0" d="M464.5,395.2h-51.3c-3.9,0-7-3.1-7-7v-51.3c0-3.9,3.1-7,7-7h51.3c3.9,0,7,3.1,7,7v51.3
	C471.5,392,468.4,395.2,464.5,395.2z"/>
<path class="st0" d="M313.8,470h-51.3c-3.9,0-7-3.1-7-7v-51.3c0-3.9,3.1-7,7-7h51.3c3.9,0,7,3.1,7,7V463
	C320.8,466.9,317.7,470,313.8,470z"/>
<path class="st0" d="M389.2,470h-51.3c-3.9,0-7-3.1-7-7v-51.3c0-3.9,3.1-7,7-7h51.3c3.9,0,7,3.1,7,7V463
	C396.2,466.9,393,470,389.2,470z"/>
<path class="st0" d="M464.5,470h-51.3c-3.9,0-7-3.1-7-7v-51.3c0-3.9,3.1-7,7-7h51.3c3.9,0,7,3.1,7,7V463
	C471.5,466.9,468.4,470,464.5,470z"/>
</svg>
