<?xml version="1.0" encoding="utf-8"?>
<!-- Generator: Adobe Illustrator 19.2.0, SVG Export Plug-In . SVG Version: 6.00 Build 0)  -->
<svg version="1.1" id="Layer_1" xmlns="http://www.w3.org/2000/svg" xmlns:xlink="http://www.w3.org/1999/xlink" x="0px" y="0px"
	 viewBox="0 0 500 500" style="enable-background:new 0 0 500 500;" xml:space="preserve">
<style type="text/css">
	.st0{fill:#231F20;}
</style>
<path class="st0" d="M153.5,162h-123c-3.9,0-7-3.1-7-7V32c0-3.9,3.1-7,7-7h123c3.9,0,7,3.1,7,7v123C160.5,158.9,157.4,162,153.5,162
	z"/>
<path class="st0" d="M311.5,162h-123c-3.9,0-7-3.1-7-7V32c0-3.9,3.1-7,7-7h123c3.9,0,7,3.1,7,7v123C318.5,158.9,315.4,162,311.5,162
	z"/>
<path class="st0" d="M469.5,162h-123c-3.9,0-7-3.1-7-7V32c0-3.9,3.1-7,7-7h123c3.9,0,7,3.1,7,7v123C476.5,158.9,473.4,162,469.5,162
	z"/>
<path class="st0" d="M154.5,319h-123c-3.9,0-7-3.1-7-7V189c0-3.9,3.1-7,7-7h123c3.9,0,7,3.1,7,7v123
	C161.5,315.9,158.4,319,154.5,319z"/>
<path class="st0" d="M312.5,319h-123c-3.9,0-7-3.1-7-7V189c0-3.9,3.1-7,7-7h123c3.9,0,7,3.1,7,7v123
	C319.5,315.9,316.4,319,312.5,319z"/>
<path class="st0" d="M470.5,319h-123c-3.9,0-7-3.1-7-7V189c0-3.9,3.1-7,7-7h123c3.9,0,7,3.1,7,7v123
	C477.5,315.9,474.4,319,470.5,319z"/>
<path class="st0" d="M154.5,476h-123c-3.9,0-7-3.1-7-7V346c0-3.9,3.1-7,7-7h123c3.9,0,7,3.1,7,7v123
	C161.5,472.9,158.4,476,154.5,476z"/>
<path class="st0" d="M312.5,476h-123c-3.9,0-7-3.1-7-7V346c0-3.9,3.1-7,7-7h123c3.9,0,7,3.1,7,7v123
	C319.5,472.9,316.4,476,312.5,476z"/>
<path class="st0" d="M470.5,476h-123c-3.9,0-7-3.1-7-7V346c0-3.9,3.1-7,7-7h123c3.9,0,7,3.1,7,7v123
	C477.5,472.9,474.4,476,470.5,476z"/>
</svg>
