<?xml version="1.0" encoding="utf-8"?>
<!-- Generator: Adobe Illustrator 19.2.0, SVG Export Plug-In . SVG Version: 6.00 Build 0)  -->
<svg version="1.1" id="Layer_1" xmlns="http://www.w3.org/2000/svg" xmlns:xlink="http://www.w3.org/1999/xlink" x="0px" y="0px"
	 viewBox="0 0 500 500" style="enable-background:new 0 0 500 500;" xml:space="preserve">
<style type="text/css">
	.st0{fill:#FFFFFF;}
	.st1{fill:none;stroke:#12100B;stroke-width:50;stroke-linecap:round;stroke-linejoin:round;stroke-miterlimit:10;}
	.st2{fill:#FFFFFF;stroke:#12100B;stroke-width:50;stroke-linecap:round;stroke-linejoin:round;stroke-miterlimit:10;}
</style>
<g>
	<g>
		<path class="st0" d="M83.5,223.8v235.3c0,0.5,0.4,0.9,0.9,0.9h92.3c0.5,0,0.9-0.5,0.9-0.9V308.8c0-0.5,0.4-0.9,0.9-0.9h143
			c0.5,0,0.9,0.5,0.9,0.9v150.3c0,0.5,0.4,0.9,0.9,0.9h92.3c0.5,0,0.9-0.5,0.9-0.9V223.8"/>
		<path class="st1" d="M83.5,223.8v235.3c0,0.5,0.4,0.9,0.9,0.9h92.3c0.5,0,0.9-0.5,0.9-0.9V308.8c0-0.5,0.4-0.9,0.9-0.9h143
			c0.5,0,0.9,0.5,0.9,0.9v150.3c0,0.5,0.4,0.9,0.9,0.9h92.3c0.5,0,0.9-0.5,0.9-0.9V223.8"/>
	</g>
	<polyline class="st2" points="83.5,271.7 40,271.7 250,40 460,271.7 416.5,271.7 	"/>
</g>
</svg>
