<?xml version="1.0" encoding="utf-8"?>
<!-- Generator: Adobe Illustrator 19.2.0, SVG Export Plug-In . SVG Version: 6.00 Build 0)  -->
<svg version="1.1" id="Layer_1" xmlns="http://www.w3.org/2000/svg" xmlns:xlink="http://www.w3.org/1999/xlink" x="0px" y="0px"
	 viewBox="0 0 500 500" style="enable-background:new 0 0 500 500;" xml:space="preserve">
<style type="text/css">
	.st0{fill:#FFFFFF;}
	.st1{fill:none;stroke:#12100B;stroke-width:25;stroke-linecap:round;stroke-linejoin:round;stroke-miterlimit:10;}
	.st2{fill:#FFFFFF;stroke:#12100B;stroke-width:25;stroke-linecap:round;stroke-linejoin:round;stroke-miterlimit:10;}
</style>
<g>
	<g>
		<path class="st0" d="M67.6,221.3V479c0,0.5,0.4,1,1,1h101.1c0.6,0,1-0.5,1-1V314.4c0-0.5,0.4-1,1-1h156.6c0.5,0,1,0.5,1,1V479
			c0,0.5,0.4,1,1,1h101.1c0.5,0,1-0.5,1-1V221.3"/>
		<path class="st1" d="M67.6,221.3V479c0,0.5,0.4,1,1,1h101.1c0.6,0,1-0.5,1-1V314.4c0-0.5,0.4-1,1-1h156.6c0.5,0,1,0.5,1,1V479
			c0,0.5,0.4,1,1,1h101.1c0.5,0,1-0.5,1-1V221.3"/>
	</g>
	<polyline class="st2" points="67.6,273.8 20,273.8 250,20 480,273.8 432.4,273.8 	"/>
</g>
</svg>
