<?xml version="1.0" encoding="utf-8"?>
<!-- Generator: Adobe Illustrator 19.2.0, SVG Export Plug-In . SVG Version: 6.00 Build 0)  -->
<svg version="1.1" id="Layer_1" xmlns="http://www.w3.org/2000/svg" xmlns:xlink="http://www.w3.org/1999/xlink" x="0px" y="0px"
	 viewBox="0 0 500 500" style="enable-background:new 0 0 500 500;" xml:space="preserve">
<style type="text/css">
	.st0{fill:none;stroke:#FFFFFF;stroke-width:30;stroke-linecap:round;stroke-linejoin:round;stroke-miterlimit:10;}
</style>
<g>
	<g>
		<g>
			<path class="st0" d="M210.8,209.8c0,0.6-0.4,1-1,1H21.5c-0.6,0-1-0.4-1-1V21.5c0-0.5,0.4-1,1-1h188.3c0.6,0,1,0.5,1,1V209.8z"/>
		</g>
		<g>
			<path class="st0" d="M480.5,209.8c0,0.6-0.5,1-1,1H291.1c-0.6,0-1-0.4-1-1V21.5c0-0.5,0.4-1,1-1h188.3c0.5,0,1,0.5,1,1
				L480.5,209.8L480.5,209.8z"/>
		</g>
	</g>
	<g>
		<g>
			<path class="st0" d="M210.8,479.5c0,0.5-0.4,1-1,1H21.5c-0.6,0-1-0.5-1-1V291.1c0-0.6,0.4-1,1-1h188.3c0.6,0,1,0.4,1,1V479.5z"/>
		</g>
		<g>
			<path class="st0" d="M480.5,479.5c0,0.5-0.5,1-1,1H291.1c-0.6,0-1-0.5-1-1V291.1c0-0.6,0.4-1,1-1h188.3c0.5,0,1,0.4,1,1
				L480.5,479.5L480.5,479.5z"/>
		</g>
	</g>
</g>
</svg>
