<?xml version="1.0" encoding="utf-8"?>
<!-- Generator: Adobe Illustrator 19.2.0, SVG Export Plug-In . SVG Version: 6.00 Build 0)  -->
<svg version="1.1" id="Layer_1" xmlns="http://www.w3.org/2000/svg" xmlns:xlink="http://www.w3.org/1999/xlink" x="0px" y="0px"
	 viewBox="0 0 500 500" style="enable-background:new 0 0 500 500;" xml:space="preserve">
<style type="text/css">
	.st0{fill:#FFFFFF;stroke:#12100B;stroke-width:25;stroke-linecap:round;stroke-linejoin:round;stroke-miterlimit:10;}
</style>
<g>
	<path class="st0" d="M412.6,87.4c89.8,89.8,89.8,235.5,0,325.3c-89.8,89.8-235.5,89.8-325.3,0c-89.8-89.8-89.8-235.5,0-325.3
		C177.2-2.5,322.8-2.5,412.6,87.4z"/>
	<g>
		<line class="st0" x1="250" y1="218.3" x2="250" y2="376.9"/>
		<line class="st0" x1="250" y1="218.3" x2="218.3" y2="218.3"/>
		<line class="st0" x1="250" y1="218.3" x2="218.3" y2="218.3"/>
		<line class="st0" x1="281.7" y1="376.9" x2="218.3" y2="376.9"/>
	</g>
	<path class="st0" d="M273.8,139c0,13.2-10.6,23.8-23.8,23.8c-13.2,0-23.8-10.6-23.8-23.8c0-13.1,10.6-23.8,23.8-23.8
		C263.2,115.2,273.8,125.8,273.8,139z"/>
</g>
</svg>
