<?xml version="1.0" encoding="utf-8"?>
<!-- Generator: Adobe Illustrator 19.2.0, SVG Export Plug-In . SVG Version: 6.00 Build 0)  -->
<svg version="1.1" id="Layer_1" xmlns="http://www.w3.org/2000/svg" xmlns:xlink="http://www.w3.org/1999/xlink" x="0px" y="0px"
	 viewBox="0 0 500 500" style="enable-background:new 0 0 500 500;" xml:space="preserve">
<style type="text/css">
	.st0{fill:none;stroke:#FFFFFF;stroke-width:35;stroke-linecap:round;stroke-linejoin:round;stroke-miterlimit:10;}
	.st1{fill:none;stroke:#FFFFFF;stroke-width:35;stroke-linecap:round;stroke-miterlimit:10;}
</style>
<g>
	<g>
		<g>
			<g>
				<path class="st0" d="M436.2,473c0,1.1-0.9,2-2,2H65.8c-1.1,0-2-0.9-2-2V182.2c0-1.1,0.9-2,2-2h368.4c1.1,0,2,0.9,2,2V473z"/>
			</g>
			<g>
				<path class="st1" d="M273.3,296.6c0,12.9-10.4,23.3-23.3,23.3c-12.9,0-23.3-10.4-23.3-23.3s10.4-23.3,23.3-23.3
					C262.9,273.3,273.3,283.7,273.3,296.6z"/>
				<line class="st1" x1="250" y1="319.8" x2="250" y2="381.9"/>
			</g>
		</g>
		<g>
			<line class="st0" x1="358.6" y1="133.6" x2="358.6" y2="180.2"/>
			<line class="st0" x1="141.4" y1="180.2" x2="141.4" y2="133.6"/>
		</g>
	</g>
	<path class="st0" d="M141.4,133.6C141.4,73.6,190,25,250,25s108.6,48.6,108.6,108.6"/>
</g>
</svg>
