<?xml version="1.0" encoding="utf-8"?>
<!-- Generator: Adobe Illustrator 19.2.0, SVG Export Plug-In . SVG Version: 6.00 Build 0)  -->
<svg version="1.1" id="Layer_1" xmlns="http://www.w3.org/2000/svg" xmlns:xlink="http://www.w3.org/1999/xlink" x="0px" y="0px"
	 viewBox="0 0 500 500" style="enable-background:new 0 0 500 500;" xml:space="preserve">
<style type="text/css">
	.st0{fill:#FFFFFF;stroke:#231F20;stroke-width:15;stroke-linecap:round;stroke-linejoin:round;stroke-miterlimit:10;}
	.st1{fill:none;stroke:#231F20;stroke-width:15;stroke-linecap:round;stroke-linejoin:round;stroke-miterlimit:10;}
	.st2{fill:#231F20;}
</style>
<g>
	<path class="st0" d="M376,146.7v325.2c0,4.4-3.6,7.9-7.9,7.9H51c-4.4,0-8.1-3.6-8.1-8.1V27.9c0-4.4,3.6-8.1,8.1-8.1h198.1"/>
	<g>
		<g>
			<polygon class="st0" points="376,146.7 249.1,146.7 249.1,19.8 			"/>
		</g>
	</g>
</g>
<g>
	<g>
		<polyline class="st0" points="243,341.5 219.2,399 276.7,375.1 		"/>
		<polyline class="st0" points="449.2,202.7 276.7,375.1 243,341.5 415.5,169 		"/>
	</g>
	<path class="st0" d="M416.5,168.1c9.3-9.3,24.3-9.3,33.6,0c9.3,9.3,9.3,24.4,0,33.6"/>
	<line class="st1" x1="399.7" y1="184.9" x2="433.3" y2="218.5"/>
</g>
<g>
	<path class="st2" d="M219.7,111.1c0,0-0.7-0.2-2.1-0.5c-1.4-0.3-3.5-0.7-6.3-1.2c-5.5-0.9-13.7-1.9-24-1.6
		c-5.1,0.2-10.8,0.8-16.6,2.3s-11.8,4-17,8c-2.6,2-4.9,4.5-6.9,7.3c-1.9,2.8-3.6,6-4.7,9.5c-1.2,3.5-1.9,7.2-2.3,11.2
		c-0.2,2-0.3,4-0.4,6.1c0,1,0,2.1,0,3.1c0,1.1,0.1,2.2,0.1,3.3c0.1,1,0.2,2,0.3,3s0.2,2.1,0.4,3.1c0.3,2.1,0.7,4.1,1.3,6.2
		c0.5,2,1.2,4,2,5.9s1.7,3.7,2.8,5.4c4.3,6.9,11,11.9,19.5,14.6c8.5,2.7,18.3,3.3,28.3,2.5c5-0.4,10.1-1.1,15.1-2.2
		c1.2-0.3,2.5-0.6,3.7-0.9l0.9-0.2l0.4-0.1l1-0.2l2.2-0.5c2.9-0.6,5.8-1.2,8.7-1.7c5.8-1,11.8-1.9,17.9-2.4
		c6.2-0.5,12.5-0.8,19.3-0.2c3.4,0.3,7,0.8,10.8,1.9c1.9,0.6,3.9,1.3,6,2.3s4.3,2.4,6.4,4.4c2.1,1.9,4.1,4.5,5.3,7.5
		c1.3,2.9,1.9,6.1,1.9,8.8c0.1,2.8-0.3,5.3-0.8,7.5s-1.2,4.2-2,6.1c-1.5,3.7-3.3,6.9-5.2,9.9c-1.9,3-3.9,5.7-5.9,8.3
		c-4.1,5.2-8.4,10-12.8,14.6s-8.9,9-13.5,13.2c-2.3,2.1-4.6,4.2-6.9,6.3l-6.9,6.1c-4.8,4.1-9.5,8.1-14.3,12s-9.8,7.8-14.8,11.5
		c-5,3.8-10.2,7.4-15.6,10.9c-5.4,3.5-10.9,6.9-16.9,9.9c-6,3.1-12.2,5.9-19.4,7.9c-3.6,1-7.5,1.8-11.7,2.2c-1,0.1-2.2,0.1-3.3,0.2
		c-1.1,0-2.2,0-3.4,0c-2.3-0.1-4.8-0.4-7.3-1c-5.1-1.1-10.5-3.6-15-7.4c-2.2-1.9-4.2-4-5.9-6.3c-1.7-2.3-3-4.6-4-7
		c-1.1-2.4-1.8-4.7-2.4-7.2c-0.3-1.2-0.5-2.4-0.7-3.8l-0.1-1c0-0.4-0.1-0.7-0.1-1.3c-0.1-1.5,0.1,0.7,0,0.6v-0.1l-0.1-0.3
		c-0.3-2-0.8-4.3-1.3-6.3s-1.2-3.8-1.7-5c-0.3-0.6-0.5-1-0.6-1.1c0-0.1,0.1,0.2,0.9,0.9c0.4,0.4,1,0.7,1.8,1.2
		c0.8,0.4,1.8,0.7,2.9,0.9c1.1,0.2,2.1,0.2,3,0.1c0.8-0.1,1.5-0.3,1.9-0.4c0.9-0.3,1-0.5,0.9-0.4c-0.2,0.1-0.6,0.4-1.1,0.8
		c-1,0.9-2.3,2.3-3.6,3.9c-1.3,1.6-2.7,3.3-4,5.2c-1.3,1.9-2.6,3.8-3.9,5.9c-1.2,1.9-2.8,4.5-3.3,5.4c-0.7,1.3-1.3,2.7-1.6,3.8
		c-0.3,1.2-0.6,2.3-0.7,3.4c-0.1,2.1,0.3,4.4,1.5,7.1c1.2,2.6,3.2,5.5,5.6,8.2c2.5,2.7,5.4,5.4,8.5,7.9s6.4,4.8,9.7,7
		c3.3,2.2,6.8,4.2,10.2,6.2c3.4,1.9,6.8,3.8,10.2,5.5s6.7,3.3,9.9,4.9c13,6.1,24.8,10.9,34.6,14.7c9.8,3.8,17.6,6.7,23,8.7
		c5.4,1.9,8.2,3,8.2,3l0,0c0.9,0.3,1.4,1.3,1.1,2.3c-0.3,0.7-1,1.2-1.7,1.2c0,0-0.8,0-2.3,0s-3.7-0.2-6.6-0.3
		c-5.8-0.3-14.2-1-24.9-2.5s-23.7-3.7-38.4-7.6c-3.7-1-7.5-2-11.4-3.3c-3.9-1.2-7.9-2.6-12-4.1c-8.2-3.1-16.8-6.9-25.6-12.2
		c-4.4-2.7-8.8-5.7-13.2-9.5c-4.3-3.8-8.6-8.4-12.3-14.2c-1.8-3-3.4-6.2-4.6-9.8c-1.2-3.6-2-7.5-2.3-11.5s0-8,0.7-11.8
		c0.8-3.8,1.9-7.4,3.4-10.8l0.6-1.4l0.5-1.2l0.4-0.9l0.6-1.2c0.6-1.3,1.3-2.5,1.9-3.8c1.3-2.6,2.8-5.1,4.3-7.7
		c1.6-2.6,3.3-5.2,5.3-7.9c2-2.7,4.2-5.4,7.2-8.3c1.5-1.4,3.2-2.9,5.3-4.4c2.2-1.5,4.7-3,8.2-4.2c1.7-0.6,3.8-1.1,6-1.3
		c2.3-0.2,4.7-0.2,7.1,0.3c2.4,0.4,4.8,1.2,6.8,2.2c2.1,1,3.8,2.2,5.3,3.5c2.9,2.5,4.8,4.9,6.3,7.2c1.5,2.3,2.5,4.3,3.4,6.3
		c1.7,4,2.8,7.6,3.6,11.1s1.4,6.9,1.8,10.5l0.1,0.7v0.4c0,0.1,0.2,2.4,0.1,1.1c0-0.2,0-0.2,0-0.2l0,0c0,0.1,0,0.3,0,0.5
		c0.1,0.4,0.1,0.8,0.2,1c0.2,0.6,0.3,0.7,0.1,0.7c-0.1,0-0.2,0.2,0.4,0.4c0.6,0.2,1.8,0.5,3.4,0.5c1.6,0,3.6-0.2,5.7-0.7
		c4.2-0.9,9-2.5,13.8-4.6c9.7-4.2,19.5-9.9,29.2-16.2c4.8-3.1,9.6-6.5,14.3-10s9.5-7.1,14-10.6c4.8-3.8,9.3-7.4,13.8-11.2
		s8.8-7.6,13-11.5c4.1-3.9,8.1-7.9,11.6-12c1.8-2,3.4-4.1,4.8-6.1s2.7-4,3.5-5.8c0.9-1.7,1.2-3.3,1.2-3.6c0-0.2,0.1,0,0.2,0.2
		s0.3,0.4,0.3,0.3c0-0.2-1.2-1-3-1.7c-1.8-0.6-4-1.2-6.4-1.5c-4.8-0.7-10.1-0.8-15.5-0.7s-10.8,0.6-16.2,1.2c-2.7,0.3-5.4,0.7-8,1.1
		l-1.9,0.3h-0.2c-0.5,0.1,0.4-0.1,0.2,0l-0.7,0.1l-1.2,0.2c-1.5,0.3-3,0.6-4.5,0.8c-6,0.9-11.9,1.4-17.8,1.5
		c-11.8,0.2-23.7-1.1-34.8-5.6c-5.5-2.2-10.9-5.3-15.4-9.2c-4.6-3.9-8.3-8.7-11-13.7c-1.3-2.5-2.5-5.1-3.3-7.7
		c-0.9-2.6-1.6-5.2-2.1-7.8s-0.8-5.2-1.1-7.7c-0.1-1.3-0.2-2.5-0.2-3.8s0-2.5,0-3.8c0-1.2,0.1-2.4,0.1-3.5c0.1-1.2,0.1-2.4,0.2-3.6
		c0.2-2.4,0.5-4.7,0.9-7.1c0.8-4.7,2.1-9.2,3.9-13.4c1.8-4.2,4.2-8.2,6.9-11.6c2.8-3.4,6-6.3,9.4-8.6c3.4-2.3,7-4,10.5-5.3
		s7-2.2,10.3-2.8c6.7-1.2,12.8-1.3,18.2-1.1c10.9,0.5,19.2,2.3,24.8,3.6c2.8,0.7,4.9,1.3,6.4,1.7c1.4,0.4,2.2,0.7,2.2,0.7
		c0.9,0.3,1.4,1.3,1.1,2.2C221.5,110.8,220.6,111.3,219.7,111.1z"/>
</g>
</svg>
