<?xml version="1.0" encoding="utf-8"?>
<!-- Generator: Adobe Illustrator 19.2.0, SVG Export Plug-In . SVG Version: 6.00 Build 0)  -->
<svg version="1.1" id="Layer_1" xmlns="http://www.w3.org/2000/svg" xmlns:xlink="http://www.w3.org/1999/xlink" x="0px" y="0px"
	 viewBox="0 0 500 500" style="enable-background:new 0 0 500 500;" xml:space="preserve">
<style type="text/css">
	.st0{fill:#FFFFFF;stroke:#12100B;stroke-width:25;stroke-linecap:round;stroke-linejoin:round;stroke-miterlimit:10;}
	.st1{fill:#868686;stroke:#1D1D1B;stroke-width:25;stroke-linecap:round;stroke-linejoin:round;stroke-miterlimit:10;}
</style>
<g>
	<path class="st0" d="M376,148.2v325.2c0,4.4-3.6,7.9-7.9,7.9H51c-4.4,0-8.1-3.6-8.1-8.1V29.4c0-4.4,3.6-8.1,8.1-8.1h198.1"/>
	<g>
		<g>
			<polygon class="st0" points="376,148.2 249.1,148.2 249.1,21.3 			"/>
		</g>
	</g>
</g>
<line class="st1" x1="89.3" y1="405.2" x2="219.2" y2="405.2"/>
<line class="st1" x1="88.2" y1="354.7" x2="328.1" y2="354.7"/>
<line class="st1" x1="88.2" y1="304.2" x2="325.5" y2="304.2"/>
<line class="st1" x1="88.2" y1="253.7" x2="325.5" y2="253.7"/>
<line class="st1" x1="88.2" y1="203.2" x2="325.5" y2="203.2"/>
<g>
	<g>
		<polyline class="st0" points="243,343 219.2,400.5 276.7,376.6 		"/>
		<polyline class="st0" points="449.2,204.2 276.7,376.6 243,343 415.5,170.5 		"/>
	</g>
	<path class="st0" d="M416.5,169.6c9.3-9.3,24.3-9.3,33.6,0c9.3,9.3,9.3,24.4,0,33.6"/>
	<line class="st0" x1="399.7" y1="186.4" x2="433.3" y2="220"/>
</g>
</svg>
