<?xml version="1.0" encoding="utf-8"?>
<!-- Generator: Adobe Illustrator 19.2.0, SVG Export Plug-In . SVG Version: 6.00 Build 0)  -->
<svg version="1.1" id="Layer_1" xmlns="http://www.w3.org/2000/svg" xmlns:xlink="http://www.w3.org/1999/xlink" x="0px" y="0px"
	 viewBox="0 0 500 500" style="enable-background:new 0 0 500 500;" xml:space="preserve">
<style type="text/css">
	.st0{fill:#FFFFFF;stroke:#12100B;stroke-width:15;stroke-linecap:round;stroke-linejoin:round;stroke-miterlimit:10;}
	.st1{fill:none;stroke:#1D1D1B;stroke-width:15;stroke-linecap:round;stroke-linejoin:round;stroke-miterlimit:10;}
	.st2{fill:none;stroke:#12100B;stroke-width:15;stroke-linecap:round;stroke-linejoin:round;stroke-miterlimit:10;}
	.st3{fill:#FFFFFF;stroke:#14130F;stroke-width:15;stroke-linecap:round;stroke-linejoin:round;stroke-miterlimit:10;}
	.st4{fill:none;stroke:#14130F;stroke-width:15;stroke-linecap:round;stroke-linejoin:round;stroke-miterlimit:10;}
</style>
<g>
	<path class="st0" d="M384.1,177.1v295.7c0,4-3.3,7.2-7.2,7.2H88.6c-4,0-7.4-3.3-7.4-7.4V69c0-4,3.3-7.4,7.4-7.4h180.1"/>
	<g>
		<g>
			<polygon class="st0" points="384.1,177.1 268.7,177.1 268.7,61.7 			"/>
		</g>
	</g>
</g>
<line class="st1" x1="123.4" y1="410.8" x2="241.5" y2="410.8"/>
<line class="st1" x1="122.4" y1="364.9" x2="340.5" y2="364.9"/>
<line class="st1" x1="122.4" y1="318.9" x2="338.2" y2="318.9"/>
<line class="st1" x1="122.4" y1="273" x2="338.2" y2="273"/>
<line class="st1" x1="122.4" y1="227.1" x2="338.2" y2="227.1"/>
<g>
	<g>
		<polyline class="st0" points="263.2,354.2 241.5,406.5 293.8,384.8 		"/>
		<polyline class="st0" points="450.7,228 293.8,384.8 263.2,354.2 420,197.4 		"/>
	</g>
	<path class="st0" d="M420.9,196.5c8.5-8.5,22.1-8.5,30.6,0c8.5,8.5,8.5,22.2,0,30.6"/>
	<line class="st2" x1="405.7" y1="211.8" x2="436.2" y2="242.4"/>
</g>
<g>
	<g>
		<path class="st3" d="M123.7,34c18.7,18.7,18.7,48.9,0,67.6c-18.7,18.7-48.9,18.7-67.6,0c-18.7-18.7-18.7-48.9,0-67.6
			C74.8,15.3,105.1,15.3,123.7,34z"/>
		<line class="st4" x1="66.9" y1="67.8" x2="113" y2="67.8"/>
		<line class="st4" x1="90" y1="44.7" x2="90" y2="90.8"/>
	</g>
</g>
</svg>
