<?xml version="1.0" encoding="utf-8"?>
<!-- Generator: Adobe Illustrator 19.2.0, SVG Export Plug-In . SVG Version: 6.00 Build 0)  -->
<svg version="1.1" id="Layer_1" xmlns="http://www.w3.org/2000/svg" xmlns:xlink="http://www.w3.org/1999/xlink" x="0px" y="0px"
	 viewBox="0 0 500 500" style="enable-background:new 0 0 500 500;" xml:space="preserve">
<style type="text/css">
	.st0{fill:#FFFFFF;stroke:#12100B;stroke-width:25;stroke-linecap:round;stroke-linejoin:round;stroke-miterlimit:10;}
</style>
<g>
	<path class="st0" d="M393.6,143.5v307.9c0,4.2-3.4,7.5-7.5,7.5H85.8c-4.2,0-7.6-3.4-7.6-7.6V31c0-4.2,3.4-7.6,7.6-7.6h187.6"/>
	<g>
		<g>
			<polygon class="st0" points="393.6,143.5 273.4,143.5 273.4,23.3 			"/>
		</g>
	</g>
</g>
<g>
	<path class="st0" d="M401,355.3c27.8,27.8,27.8,72.8,0,100.5c-27.8,27.8-72.8,27.8-100.5,0c-27.8-27.8-27.8-72.8,0-100.5
		C328.2,327.5,373.2,327.5,401,355.3z"/>
	<line class="st0" x1="316.4" y1="405.6" x2="385.1" y2="405.6"/>
	<line class="st0" x1="350.7" y1="371.2" x2="350.7" y2="439.9"/>
</g>
</svg>
