<?xml version="1.0" encoding="utf-8"?>
<!-- Generator: Adobe Illustrator 19.2.0, SVG Export Plug-In . SVG Version: 6.00 Build 0)  -->
<svg version="1.1" id="Layer_1" xmlns="http://www.w3.org/2000/svg" xmlns:xlink="http://www.w3.org/1999/xlink" x="0px" y="0px"
	 viewBox="0 0 500 500" style="enable-background:new 0 0 500 500;" xml:space="preserve">
<style type="text/css">
	.st0{fill:#FFFFFF;stroke:#231F20;stroke-width:15;stroke-linecap:round;stroke-linejoin:round;stroke-miterlimit:10;}
	.st1{fill:none;stroke:#231F20;stroke-width:15;stroke-linecap:round;stroke-linejoin:round;stroke-miterlimit:10;}
	.st2{fill:#231F20;}
	.st3{fill:#FFFFFF;stroke:#14130F;stroke-width:15;stroke-linecap:round;stroke-linejoin:round;stroke-miterlimit:10;}
	.st4{fill:none;stroke:#14130F;stroke-width:15;stroke-linecap:round;stroke-linejoin:round;stroke-miterlimit:10;}
</style>
<g>
	<path class="st0" d="M386.1,181.9v291.1c0,3.9-3.2,7.1-7.1,7.1H95.2c-3.9,0-7.2-3.2-7.2-7.2V75.5c0-3.9,3.2-7.2,7.2-7.2h177.3"/>
	<g>
		<g>
			<polygon class="st0" points="386.1,181.9 272.5,181.9 272.5,68.3 			"/>
		</g>
	</g>
</g>
<g>
	<g>
		<polyline class="st0" points="267,356.2 245.7,407.7 297.2,386.3 		"/>
		<polyline class="st0" points="451.6,232 297.2,386.3 267,356.2 421.4,201.8 		"/>
	</g>
	<path class="st0" d="M422.3,201c8.3-8.3,21.7-8.3,30.1,0c8.3,8.3,8.3,21.8,0,30.1"/>
	<line class="st1" x1="407.3" y1="216.1" x2="437.4" y2="246.1"/>
</g>
<g>
	<path class="st2" d="M246.2,150c0,0-0.6-0.2-1.9-0.4s-3.1-0.6-5.6-1.1c-4.9-0.8-12.3-1.7-21.5-1.4c-4.6,0.2-9.7,0.7-14.9,2.1
		c-5.2,1.3-10.6,3.6-15.2,7.2c-2.3,1.8-4.4,4-6.2,6.5c-1.7,2.5-3.2,5.4-4.2,8.5c-1.1,3.1-1.7,6.4-2.1,10c-0.2,1.8-0.3,3.6-0.4,5.5
		c0,0.9,0,1.9,0,2.8c0,1,0.1,2,0.1,3c0.1,0.9,0.2,1.8,0.3,2.7c0.1,0.9,0.2,1.9,0.4,2.8c0.3,1.9,0.6,3.7,1.2,5.5
		c0.4,1.8,1.1,3.6,1.8,5.3s1.5,3.3,2.5,4.8c3.8,6.2,9.8,10.7,17.5,13.1s16.4,3,25.3,2.2c4.5-0.4,9-1,13.5-2c1.1-0.3,2.2-0.5,3.3-0.8
		l0.8-0.2l0.4-0.1l0.9-0.2l2-0.4c2.6-0.5,5.2-1.1,7.8-1.5c5.2-0.9,10.6-1.7,16-2.1c5.5-0.4,11.2-0.7,17.3-0.2c3,0.3,6.3,0.7,9.7,1.7
		c1.7,0.5,3.5,1.2,5.4,2.1c1.9,0.9,3.8,2.1,5.7,3.9c1.9,1.7,3.7,4,4.7,6.7c1.2,2.6,1.7,5.5,1.7,7.9c0.1,2.5-0.3,4.7-0.7,6.7
		s-1.1,3.8-1.8,5.5c-1.3,3.3-3,6.2-4.7,8.9c-1.7,2.7-3.5,5.1-5.3,7.4c-3.7,4.7-7.5,9-11.5,13.1c-3.9,4.1-8,8.1-12.1,11.8
		c-2.1,1.9-4.1,3.8-6.2,5.6l-6.2,5.5c-4.3,3.7-8.5,7.2-12.8,10.7c-4.3,3.5-8.8,7-13.2,10.3c-4.5,3.4-9.1,6.6-14,9.8
		c-4.8,3.1-9.8,6.2-15.1,8.9c-5.4,2.8-10.9,5.3-17.4,7.1c-3.2,0.9-6.7,1.6-10.5,2c-0.9,0.1-2,0.1-3,0.2c-1,0-2,0-3,0
		c-2.1-0.1-4.3-0.4-6.5-0.9c-4.6-1-9.4-3.2-13.4-6.6c-2-1.7-3.8-3.6-5.3-5.6c-1.5-2.1-2.7-4.1-3.6-6.3c-1-2.1-1.6-4.2-2.1-6.4
		c-0.3-1.1-0.4-2.1-0.6-3.4l-0.1-0.9c0-0.4-0.1-0.6-0.1-1.2c-0.1-1.3,0.1,0.6,0,0.5v-0.1l-0.1-0.3c-0.3-1.8-0.7-3.8-1.2-5.6
		s-1.1-3.4-1.5-4.5c-0.3-0.5-0.4-0.9-0.5-1c0-0.1,0.1,0.2,0.8,0.8c0.4,0.4,0.9,0.6,1.6,1.1c0.7,0.4,1.6,0.6,2.6,0.8
		c1,0.2,1.9,0.2,2.7,0.1c0.7-0.1,1.3-0.3,1.7-0.4c0.8-0.3,0.9-0.4,0.8-0.4c-0.2,0.1-0.5,0.4-1,0.7c-0.9,0.8-2.1,2.1-3.2,3.5
		c-1.2,1.4-2.4,3-3.6,4.7c-1.2,1.7-2.3,3.4-3.5,5.3c-1.1,1.7-2.5,4-3,4.8c-0.6,1.2-1.2,2.4-1.4,3.4c-0.3,1.1-0.5,2.1-0.6,3
		c-0.1,1.9,0.3,3.9,1.3,6.4c1.1,2.3,2.9,4.9,5,7.3c2.2,2.4,4.8,4.8,7.6,7.1s5.7,4.3,8.7,6.3c3,2,6.1,3.8,9.1,5.5
		c3,1.7,6.1,3.4,9.1,4.9c3,1.5,6,3,8.9,4.4c11.6,5.5,22.2,9.8,31,13.2c8.8,3.4,15.8,6,20.6,7.8c4.8,1.7,7.3,2.7,7.3,2.7l0,0
		c0.8,0.3,1.3,1.2,1,2.1c-0.3,0.6-0.9,1.1-1.5,1.1c0,0-0.7,0-2.1,0s-3.3-0.2-5.9-0.3c-5.2-0.3-12.7-0.9-22.3-2.2
		c-9.6-1.3-21.2-3.3-34.4-6.8c-3.3-0.9-6.7-1.8-10.2-3c-3.5-1.1-7.1-2.3-10.7-3.7c-7.3-2.8-15-6.2-22.9-10.9
		c-3.9-2.4-7.9-5.1-11.8-8.5c-3.8-3.4-7.7-7.5-11-12.7c-1.6-2.7-3-5.5-4.1-8.8c-1.1-3.2-1.8-6.7-2.1-10.3c-0.3-3.6,0-7.2,0.6-10.6
		c0.7-3.4,1.7-6.6,3-9.7l0.5-1.3l0.4-1.1l0.4-0.8l0.5-1.1c0.5-1.2,1.2-2.2,1.7-3.4c1.2-2.3,2.5-4.6,3.8-6.9c1.4-2.3,3-4.7,4.7-7.1
		c1.8-2.4,3.8-4.8,6.4-7.4c1.3-1.3,2.9-2.6,4.7-3.9c2-1.3,4.2-2.7,7.3-3.8c1.5-0.5,3.4-1,5.4-1.2c2.1-0.2,4.2-0.2,6.4,0.3
		c2.1,0.4,4.3,1.1,6.1,2c1.9,0.9,3.4,2,4.7,3.1c2.6,2.2,4.3,4.4,5.6,6.4c1.3,2.1,2.2,3.8,3,5.6c1.5,3.6,2.5,6.8,3.2,9.9
		c0.7,3.1,1.3,6.2,1.6,9.4l0.1,0.6v0.4c0,0.1,0.2,2.1,0.1,1c0-0.2,0-0.2,0-0.2l0,0c0,0.1,0,0.3,0,0.4c0.1,0.4,0.1,0.7,0.2,0.9
		c0.2,0.5,0.3,0.6,0.1,0.6c-0.1,0-0.2,0.2,0.4,0.4c0.5,0.2,1.6,0.4,3,0.4s3.2-0.2,5.1-0.6c3.8-0.8,8.1-2.2,12.4-4.1
		c8.7-3.8,17.5-8.9,26.1-14.5c4.3-2.8,8.6-5.8,12.8-9c4.2-3.1,8.5-6.4,12.5-9.5c4.3-3.4,8.3-6.6,12.4-10s7.9-6.8,11.6-10.3
		c3.7-3.5,7.2-7.1,10.4-10.7c1.6-1.8,3-3.7,4.3-5.5c1.3-1.8,2.4-3.6,3.1-5.2c0.8-1.5,1.1-3,1.1-3.2c0-0.2,0.1,0,0.2,0.2
		s0.3,0.4,0.3,0.3c0-0.2-1.1-0.9-2.7-1.5c-1.6-0.5-3.6-1.1-5.7-1.3c-4.3-0.6-9-0.7-13.9-0.6c-4.8,0.1-9.7,0.5-14.5,1.1
		c-2.4,0.3-4.8,0.6-7.2,1l-1.7,0.3h-0.2c-0.4,0.1,0.4-0.1,0.2,0l-0.6,0.1l-1.1,0.2c-1.3,0.3-2.7,0.5-4,0.7
		c-5.4,0.8-10.7,1.3-15.9,1.3c-10.6,0.2-21.2-1-31.1-5c-4.9-2-9.8-4.7-13.8-8.2c-4.1-3.5-7.4-7.8-9.8-12.3c-1.2-2.2-2.2-4.6-3-6.9
		c-0.8-2.3-1.4-4.7-1.9-7c-0.4-2.3-0.7-4.7-1-6.9c-0.1-1.2-0.2-2.2-0.2-3.4c0-1.2,0-2.2,0-3.4c0-1.1,0.1-2.1,0.1-3.1
		c0.1-1.1,0.1-2.1,0.2-3.2c0.2-2.1,0.4-4.2,0.8-6.4c0.7-4.2,1.9-8.2,3.5-12c1.6-3.8,3.8-7.3,6.2-10.4c2.5-3,5.4-5.6,8.4-7.7
		c3-2.1,6.3-3.6,9.4-4.7c3.1-1.2,6.3-2,9.2-2.5c6-1.1,11.5-1.2,16.3-1c9.8,0.4,17.2,2.1,22.2,3.2c2.5,0.6,4.4,1.2,5.7,1.5
		c1.3,0.4,2,0.6,2,0.6c0.8,0.3,1.3,1.2,1,2C247.8,149.7,247,150.2,246.2,150z"/>
</g>
<g>
	<g>
		<path class="st3" d="M131,35.4c20.5,20.5,20.5,53.8,0,74.3c-20.5,20.5-53.8,20.5-74.3,0c-20.5-20.5-20.5-53.8,0-74.3
			C77.3,14.9,110.5,14.9,131,35.4z"/>
		<line class="st4" x1="68.5" y1="72.5" x2="119.2" y2="72.5"/>
		<line class="st4" x1="93.9" y1="47.2" x2="93.9" y2="97.9"/>
	</g>
</g>
</svg>
