<?xml version="1.0" encoding="UTF-8" standalone="no"?>
<!-- Generator: Adobe Illustrator 19.2.0, SVG Export Plug-In . SVG Version: 6.00 Build 0)  -->

<svg
   xmlns:dc="http://purl.org/dc/elements/1.1/"
   xmlns:cc="http://creativecommons.org/ns#"
   xmlns:rdf="http://www.w3.org/1999/02/22-rdf-syntax-ns#"
   xmlns:svg="http://www.w3.org/2000/svg"
   xmlns="http://www.w3.org/2000/svg"
   xmlns:sodipodi="http://sodipodi.sourceforge.net/DTD/sodipodi-0.dtd"
   xmlns:inkscape="http://www.inkscape.org/namespaces/inkscape"
   version="1.1"
   id="Layer_1"
   x="0px"
   y="0px"
   viewBox="0 0 447.89999 72.400002"
   xml:space="preserve"
   inkscape:version="0.91 r13725"
   sodipodi:docname="reMarkable.svg"
   width="447.89999"
   height="72.400002"><metadata
     id="metadata33"><rdf:RDF><cc:Work
         rdf:about=""><dc:format>image/svg+xml</dc:format><dc:type
           rdf:resource="http://purl.org/dc/dcmitype/StillImage" /><dc:title></dc:title></cc:Work></rdf:RDF></metadata><defs
     id="defs31" /><sodipodi:namedview
     pagecolor="#ffffff"
     bordercolor="#666666"
     borderopacity="1"
     objecttolerance="10"
     gridtolerance="10"
     guidetolerance="10"
     inkscape:pageopacity="0"
     inkscape:pageshadow="2"
     inkscape:window-width="1279"
     inkscape:window-height="1415"
     id="namedview29"
     showgrid="false"
     fit-margin-top="0"
     fit-margin-left="0"
     fit-margin-right="0"
     fit-margin-bottom="0"
     inkscape:zoom="0.472"
     inkscape:cx="158.32203"
     inkscape:cy="14.9"
     inkscape:window-x="1280"
     inkscape:window-y="0"
     inkscape:window-maximized="0"
     inkscape:current-layer="Layer_1" /><g
     id="g3"
     transform="translate(-26,-192.5)"><g
       id="g5"><path
         d="m 91.1,255.5 c 4.4,0 8.4,-1.1 10.7,-2 l 0.4,0.7 c -2.3,3.3 -9.2,10.3 -19,10.3 -12,0 -20.5,-8.6 -20.5,-21.3 0,-13.7 11,-23 20.8,-23 10.5,0 15.4,9.3 17.8,16.5 l 0,0.4 -26.4,0 0,1.4 c 0,10.8 6,17 16.2,17 m -15.4,-22.9 13.2,0 c -0.5,-5.8 -3.8,-7.3 -5.9,-7.3 -2.7,0 -5.8,2.3 -7.3,7.3"
         id="path7"
         inkscape:connector-curvature="0" /><path
         d="m 176.5,205.5 0,51.4 6.9,6.1 0,0.6 -29,0 0,-0.6 7,-6.1 0,-40 -22.6,42.1 -1.5,0 -21.9,-42 0,39.9 6.9,6.1 0,0.6 -20.3,0 0,-0.6 6.9,-6.1 0,-49 c -0.5,-0.7 -5.6,-8 -5.9,-8.6 l 0,-0.5 19,0 21.1,40.1 20.7,-40.1 19.4,0 0,0.5 -6.7,6.2 z"
         id="path9"
         inkscape:connector-curvature="0" /><path
         d="m 249.7,219.9 0,9.6 c 3.9,-5.5 7.5,-9.5 9.6,-9.5 2.6,0 6.4,1.2 7.7,1.7 l -4.1,12.3 c -1.7,-0.9 -5.3,-2.7 -8.3,-2.7 -1.9,0 -3.7,0.7 -4.9,1.8 l 0,24.7 8.5,5.3 0,0.6 -27.1,0 0,-0.6 5.5,-5 0,-24.9 -5.3,-4.2 0,-0.6 18.4,-8.5 z"
         id="path11"
         inkscape:connector-curvature="0" /><path
         d="m 376.3,192.5 0,33.8 c 4.3,-3.5 8.9,-6.1 13.5,-6.1 7.4,0 16,6 16,19 0,17.5 -13.2,25 -24.3,25 -3.9,0 -12,-0.7 -18,-0.7 l -0.5,0 0,-56.7 -5.8,-4.6 0,-0.6 19.1,-9.1 z m 0,37.4 0,27.2 c 1.1,0.8 2.4,1.7 5.2,1.7 6.3,0 10.6,-6.3 10.6,-15.6 0,-9.1 -3.7,-15 -10.3,-15 -2.6,0 -4.7,1 -5.5,1.7"
         id="path13"
         inkscape:connector-curvature="0" /><polygon
         points="432.3,263.5 408.3,263.5 408.3,262.9 413.8,258.1 413.8,206.8 408,202.2 408,201.6 426.9,192.5 426.9,258.1 432.3,262.9 "
         id="polygon15" /><path
         d="m 462.9,255.5 c 4.4,0 8.4,-1.1 10.6,-2 l 0.4,0.7 c -2.3,3.3 -9.2,10.3 -19,10.3 -12,0 -20.5,-8.6 -20.5,-21.3 0,-13.7 11,-23 20.8,-23 10.6,0 15.4,9.3 17.8,16.5 l 0,0.4 -26.4,0 0,1.4 c 0.1,10.8 6.1,17 16.3,17 m -15.4,-22.9 13.2,0 c -0.5,-5.8 -3.8,-7.3 -5.9,-7.3 -2.7,0 -5.8,2.3 -7.3,7.3"
         id="path17"
         inkscape:connector-curvature="0" /><path
         d="m 44.6,219.9 0,9.6 c 3.9,-5.5 7.5,-9.5 9.6,-9.5 2.6,0 6.4,1.2 7.7,1.7 L 57.8,234 c -1.7,-0.9 -5.3,-2.7 -8.3,-2.7 -1.9,0 -3.7,0.7 -4.9,1.8 l 0,24.7 8.5,5.3 0,0.6 -27.1,0 0,-0.6 5.5,-5 0,-24.9 -5.3,-4.2 0,-0.6 18.4,-8.5 z"
         id="path19"
         inkscape:connector-curvature="0" /><path
         d="m 285.7,192.7 0,65.4 5.1,4.9 0,0.6 -23.5,0 0,-0.6 5.4,-4.9 0,-51.1 -5.8,-4.6 0,-0.6 18.8,-9.1 z m 12.6,49.2 6.4,9.1 c 5.1,7.3 7.9,10 10.2,11.9 l 0,0.6 c -1.5,0.4 -5,1.2 -8.1,1.2 -6.6,0 -9.6,-2.5 -13.8,-8.8 l -9,-13.4 0,-0.6 14.3,0 z"
         id="path21"
         inkscape:connector-curvature="0" /><path
         d="m 308.5,227.8 c 0,4.5 -3.6,8.1 -8,8.1 -4.4,0 -8,-3.6 -8,-8.1 0,-4.5 3.6,-8.1 8,-8.1 4.4,0 8,3.6 8,8.1"
         id="path23"
         inkscape:connector-curvature="0" /><path
         d="m 205.5,257.1 c -4.3,0 -6.7,-2.6 -6.7,-6 0,-1.2 0.3,-2.3 0.7,-2.6 0.6,-0.3 7.3,-2.4 10.8,-3.1 0,5 -0.1,9.1 -0.1,10.6 -0.8,0.4 -2.6,1.1 -4.7,1.1 m 22.8,5.8 -5.2,-5 c 0,0 0.3,-22.9 0.3,-27.3 0,-3.7 -3.4,-10.7 -14.1,-10.7 -11.7,0 -19.2,9.2 -21.8,12.5 l 0,0.6 10.4,3.5 c 0,0 -0.7,-2.4 0,-5.3 0.6,-2.5 3.1,-4.8 6.2,-4.8 4,0 6.3,3.1 6.3,6.2 l 0,8.2 -20.2,4.9 c -1.9,0.5 -3.9,3.8 -3.9,7.7 0,6.1 5.2,11.5 13.2,11.5 2.9,0 7.4,-2.3 10.8,-5.3 l 0,4.1 12.7,0 5.2,0 0,-0.8 z"
         id="path25"
         inkscape:connector-curvature="0" /><path
         d="m 335.3,257.1 c -4.3,0 -6.7,-2.6 -6.7,-6 0,-1.2 0.3,-2.3 0.7,-2.6 0.6,-0.3 7.3,-2.4 10.8,-3.1 0,5 -0.1,9.1 -0.1,10.6 -0.8,0.4 -2.6,1.1 -4.7,1.1 m 22.8,5.8 -5.2,-5 c 0,0 0.3,-22.9 0.3,-27.3 0,-3.7 -3.4,-10.7 -14.1,-10.7 -11.7,0 -19.2,9.2 -21.8,12.5 l 0,0.6 10.4,3.5 c 0,0 -0.7,-2.4 0,-5.3 0.6,-2.5 3.1,-4.8 6.2,-4.8 4,0 6.3,3.1 6.3,6.2 l 0,8.2 -20.2,4.9 c -1.9,0.5 -3.9,3.8 -3.9,7.7 0,6.1 5.2,11.5 13.2,11.5 2.9,0 7.4,-2.3 10.8,-5.3 l 0,4.1 12.8,0 5.2,0 0,-0.8 z"
         id="path27"
         inkscape:connector-curvature="0" /></g></g></svg>