<?xml version="1.0" encoding="utf-8"?>
<!-- Generator: Adobe Illustrator 19.2.0, SVG Export Plug-In . SVG Version: 6.00 Build 0)  -->
<svg version="1.1" id="Layer_1" xmlns="http://www.w3.org/2000/svg" xmlns:xlink="http://www.w3.org/1999/xlink" x="0px" y="0px"
	 viewBox="0 0 500 500" style="enable-background:new 0 0 500 500;" xml:space="preserve">
<style type="text/css">
	.st0{fill:none;stroke:#14130F;stroke-width:25;stroke-linecap:round;stroke-linejoin:round;stroke-miterlimit:10;}
	.st1{fill:#231F20;}
	.st2{fill:none;stroke:#000000;stroke-width:25;stroke-linecap:round;stroke-linejoin:round;stroke-miterlimit:10;}
</style>
<rect x="20" y="87.2" transform="matrix(4.489546e-11 1 -1 4.489546e-11 500 -1.122388e-08)" class="st0" width="460" height="325.6"/>
<path class="st1" d="M112.2,449v-29.2c0-1.7,1.3-3,3-3h29.2c1.7,0,3,1.3,3,3V449c0,1.7-1.3,3-3,3h-29.2
	C113.5,452,112.2,450.6,112.2,449z"/>
<path class="st1" d="M232.4,449v-29.2c0-1.7,1.3-3,3-3h29.2c1.7,0,3,1.3,3,3V449c0,1.7-1.3,3-3,3h-29.2
	C233.8,452,232.4,450.6,232.4,449z"/>
<path class="st1" d="M350.4,449v-29.2c0-1.7,1.3-3,3-3h29.2c1.7,0,3,1.3,3,3V449c0,1.7-1.3,3-3,3h-29.2
	C351.8,452,350.4,450.6,350.4,449z"/>
<g>
	<path class="st2" d="M342.8,245.7c0.4-3.7,0.6-7.4,0.6-11.2c0-55.4-44.8-100.4-100-100.4c-55.2,0-100,44.9-100,100.4"/>
	<polyline class="st2" points="312.7,223.1 342.8,250 366.5,211.5 	"/>
</g>
</svg>
