<?xml version="1.0" encoding="utf-8"?>
<!-- Generator: Adobe Illustrator 19.2.0, SVG Export Plug-In . SVG Version: 6.00 Build 0)  -->
<svg version="1.1" id="Layer_1" xmlns="http://www.w3.org/2000/svg" xmlns:xlink="http://www.w3.org/1999/xlink" x="0px" y="0px"
	 viewBox="0 0 500 500" style="enable-background:new 0 0 500 500;" xml:space="preserve">
<style type="text/css">
	.st0{fill:none;stroke:#14130F;stroke-width:25;stroke-linecap:round;stroke-linejoin:round;stroke-miterlimit:10;}
	.st1{fill:#231F20;}
	.st2{fill:none;stroke:#000000;stroke-width:25;stroke-linecap:round;stroke-linejoin:round;stroke-miterlimit:10;}
</style>
<rect x="20" y="87.2" transform="matrix(-1 8.979249e-11 -8.979249e-11 -1 500 500)" class="st0" width="460" height="325.6"/>
<path class="st1" d="M51,112.2h29.2c1.7,0,3,1.3,3,3v29.2c0,1.7-1.3,3-3,3H51c-1.7,0-3-1.3-3-3v-29.2C48,113.5,49.4,112.2,51,112.2z
	"/>
<path class="st1" d="M51,232.4h29.2c1.7,0,3,1.3,3,3v29.2c0,1.7-1.3,3-3,3H51c-1.7,0-3-1.3-3-3v-29.2C48,233.8,49.4,232.4,51,232.4z
	"/>
<path class="st1" d="M51,350.4h29.2c1.7,0,3,1.3,3,3v29.2c0,1.7-1.3,3-3,3H51c-1.7,0-3-1.3-3-3v-29.2C48,351.8,49.4,350.4,51,350.4z
	"/>
<g>
	<path class="st2" d="M400.1,200.7c0.5,4.8,0.8,9.8,0.8,14.8c0,73.4-59.3,132.9-132.4,132.9c-73.1,0-132.4-59.5-132.4-132.9"/>
	<polyline class="st2" points="360.1,230.8 400,195.1 431.4,246 	"/>
</g>
</svg>
