<?xml version="1.0" encoding="utf-8"?>
<!-- Generator: Adobe Illustrator 19.2.0, SVG Export Plug-In . SVG Version: 6.00 Build 0)  -->
<svg version="1.1" id="Layer_1" xmlns="http://www.w3.org/2000/svg" xmlns:xlink="http://www.w3.org/1999/xlink" x="0px" y="0px"
	 viewBox="0 0 500 500" style="enable-background:new 0 0 500 500;" xml:space="preserve">
<style type="text/css">
	.st0{fill:none;stroke:#000000;stroke-width:35;stroke-linecap:round;stroke-linejoin:round;stroke-miterlimit:10;}
</style>
<g>
	<g>
		<line class="st0" x1="71.6" y1="475" x2="71.6" y2="296.6"/>
	</g>
	<g>
		<line class="st0" x1="71.6" y1="201.8" x2="71.6" y2="25"/>
	</g>
	<g>
		<line class="st0" x1="428.5" y1="475" x2="428.5" y2="211.2"/>
	</g>
	<g>
		<line class="st0" x1="428.5" y1="115" x2="428.5" y2="25"/>
	</g>
	<g>
		<line class="st0" x1="250" y1="475" x2="250" y2="389.7"/>
	</g>
	<g>
		<line class="st0" x1="250" y1="295" x2="250" y2="25"/>
	</g>
	<path class="st0" d="M296.6,343.1c0,25.7-20.8,46.6-46.6,46.6c-25.7,0-46.6-20.8-46.6-46.6c0-25.7,20.9-46.6,46.6-46.6
		C275.7,296.6,296.6,317.4,296.6,343.1z"/>
	<path class="st0" d="M475,164.7c0,25.7-20.8,46.6-46.6,46.6c-25.7,0-46.6-20.8-46.6-46.6c0-25.7,20.9-46.6,46.6-46.6
		C454.2,118.1,475,138.9,475,164.7z"/>
	<path class="st0" d="M118.1,250c0,25.7-20.8,46.6-46.6,46.6C45.8,296.6,25,275.7,25,250c0-25.7,20.9-46.6,46.6-46.6
		C97.3,203.4,118.1,224.3,118.1,250z"/>
</g>
</svg>
