<?xml version="1.0" encoding="utf-8"?>
<!-- Generator: Adobe Illustrator 19.2.0, SVG Export Plug-In . SVG Version: 6.00 Build 0)  -->
<svg version="1.1" id="Layer_1" xmlns="http://www.w3.org/2000/svg" xmlns:xlink="http://www.w3.org/1999/xlink" x="0px" y="0px"
	 viewBox="0 0 500 500" style="enable-background:new 0 0 500 500;" xml:space="preserve">
<style type="text/css">
	.st0{fill:none;}
	.st1{fill:#1D1C1A;}
</style>
<g>
	<polygon class="st0" points="94.5,341.7 126.1,310.3 94.5,310.3 	"/>
	<polygon class="st0" points="195.9,241.1 225.9,211.4 195.9,211.4 	"/>
	<polygon class="st0" points="94.5,211.4 94.5,285.3 151.4,285.3 170.7,266.1 170.7,211.4 	"/>
	<rect x="94.5" y="112.6" class="st0" width="76.2" height="73.8"/>
	<polygon class="st0" points="297.4,140.5 325.6,112.6 297.4,112.6 	"/>
	<polygon class="st0" points="195.9,112.6 195.9,186.4 251.1,186.4 272.2,165.5 272.2,112.6 	"/>
	<rect x="94.5" y="186.4" class="st1" width="76.2" height="25"/>
	<path class="st1" d="M32.6,186.4c-7,0-12.6,5.6-12.6,12.5s5.6,12.5,12.6,12.5h36.6v-25H32.6z"/>
	<polygon class="st1" points="195.9,211.4 225.9,211.4 251.1,186.4 195.9,186.4 	"/>
	<rect x="195.9" y="87.6" class="st1" width="76.2" height="25"/>
	<path class="st1" d="M33.1,87.6c-7,0-12.6,5.6-12.6,12.5s5.6,12.5,12.6,12.5h36.2v-25H33.1z"/>
	<path class="st1" d="M325.6,112.6l19.1-19c-2.2-3.6-6.2-6-10.8-6h-36.5v25H325.6z"/>
	<rect x="94.5" y="87.6" class="st1" width="76.2" height="25"/>
	<path class="st1" d="M94.5,310.3H69.2v35.9c0,5.5,3.6,10.2,8.7,11.9l16.5-16.4V310.3z"/>
	<path class="st1" d="M94.5,211.4v-25v-73.8v-25V46.2c0-6.9-5.6-12.5-12.6-12.5s-12.6,5.6-12.6,12.5v41.4v25v73.8v25v73.8h25.2
		V211.4z"/>
	<path class="st1" d="M170.7,186.4v25v54.7l25.2-25v-29.7v-25v-73.8v-25v-39c0-6.9-5.6-12.5-12.6-12.5s-12.6,5.6-12.6,12.5v39v25
		V186.4z"/>
	<path class="st1" d="M126.1,310.3l25.2-25H94.5H69.2H32.6c-7,0-12.6,5.6-12.6,12.5s5.6,12.5,12.6,12.5h36.6h25.2H126.1z"/>
	<path class="st1" d="M272.2,165.5l25.2-25v-27.9v-25V49.4c0-6.9-5.6-12.5-12.6-12.5c-7,0-12.6,5.6-12.6,12.5v38.2v25V165.5z"/>
</g>
<g>
	<path class="st0" d="M468.3,466.3H106.2c-6.5,0-11.7-5.2-11.7-11.6c0-6.4,5.2-11.6,11.7-11.6h362.1c6.5,0,11.7,5.2,11.7,11.6
		C480,461.1,474.8,466.3,468.3,466.3z"/>
	<path class="st1" d="M468.3,443.1H106.2c-6.5,0-11.7,5.2-11.7,11.6c0,6.4,5.2,11.6,11.7,11.6h362.1c6.5,0,11.7-5.2,11.7-11.6
		C480,448.3,474.8,443.1,468.3,443.1z"/>
	<path class="st1" d="M476.1,379.2c0-6.4-5.2-11.6-11.7-11.6H168.7l-23.4,23.2h319C470.8,390.8,476.1,385.6,476.1,379.2z"/>
	<path class="st1" d="M477.7,303.6c0-6.4-5.2-11.6-11.7-11.6H245l-23.4,23.2H466C472.4,315.2,477.7,310,477.7,303.6z"/>
	<path class="st1" d="M476.1,228.1c0-6.4-5.2-11.6-11.7-11.6H321.2l-23.4,23.2h166.6C470.8,239.7,476.1,234.5,476.1,228.1z"/>
</g>
</svg>
