<?xml version="1.0" encoding="utf-8"?>
<!-- Generator: Adobe Illustrator 19.2.0, SVG Export Plug-In . SVG Version: 6.00 Build 0)  -->
<svg version="1.1" id="Layer_1" xmlns="http://www.w3.org/2000/svg" xmlns:xlink="http://www.w3.org/1999/xlink" x="0px" y="0px"
	 viewBox="0 0 500 500" style="enable-background:new 0 0 500 500;" xml:space="preserve">
<style type="text/css">
	.st0{fill:#FFFFFF;}
	.st1{fill:none;stroke:#12100B;stroke-width:25;stroke-linecap:round;stroke-linejoin:round;stroke-miterlimit:10;}
	.st2{fill:#FFFFFF;stroke:#12100B;stroke-width:25;stroke-linecap:round;stroke-linejoin:round;stroke-miterlimit:10;}
</style>
<g>
	<g>
		<path class="st0" d="M400.7,99.3L355.6,479c-0.1,0.5-0.6,1-1.1,1h-209c-0.5,0-1.1-0.4-1.1-1L99.3,99.3"/>
		<path class="st1" d="M400.7,99.3L355.6,479c-0.1,0.5-0.6,1-1.1,1h-209c-0.5,0-1.1-0.4-1.1-1L99.3,99.3"/>
	</g>
	<g>
		<path class="st0" d="M186.6,99.3V22c0-1.1,0.9-2,2-2h122.9c1.1,0,2,0.9,2,2v77.3"/>
		<path class="st1" d="M186.6,99.3V22c0-1.1,0.9-2,2-2h122.9c1.1,0,2,0.9,2,2v77.3"/>
	</g>
	<line class="st2" x1="67.6" y1="99.3" x2="432.4" y2="99.3"/>
</g>
</svg>
